Coordinates
version=1
nRows=9
nColumns=24
inDegrees=yes

Units are S.I. units (second, meters, Newtons, ...)
Angles are in degrees.

endheader
time	pelvis_tilt	pelvis_list	pelvis_rotation	pelvis_tx	pelvis_ty	pelvis_tz	hip_flexion_r	hip_adduction_r	hip_rotation_r	knee_angle_r	ankle_angle_r	subtalar_angle_r	mtp_angle_r	hip_flexion_l	hip_adduction_l	hip_rotation_l	knee_angle_l	ankle_angle_l	subtalar_angle_l	mtp_angle_l	lumbar_extension	lumbar_bending	lumbar_rotation
      0.70400000	      0.35104463	      3.03776458	     11.71245824	      0.07460785	      0.97778339	      0.28254171	     24.80632282	     -6.68334554	     -7.20870634	      1.83436413	      7.37004967	    -16.20285872	      0.61271453	    -24.33902174	      1.54270812	     13.24660712	     -0.56715624	     11.74723409	     -8.64803237	      0.69703730	     -2.80582181	     -3.47213609	     -3.33833578
      0.70816667	      0.34038784	      2.99988141	     11.85231831	      0.08052058	      0.97722493	      0.28287898	     24.82980682	     -6.65897544	     -7.23380991	      1.39184878	      7.51282356	    -16.13270809	      5.59293270	    -24.46140433	      1.37302919	     13.13749148	     -0.93216291	     11.63482116	     -8.36438333	      4.42866216	     -2.78299226	     -3.40922038	     -3.59054815
      0.71233333	      0.28534178	      2.93389433	     11.97903898	      0.08651715	      0.97663390	      0.28328392	     24.84774285	     -6.59057921	     -7.00805962	      1.02498126	      7.47850408	    -16.49767097	      5.61177370	    -24.57102666	      1.18756482	     13.24601005	     -1.23442098	     11.50009078	     -8.42856007	      4.47834242	     -2.68241690	     -3.31586432	     -3.59073893
      0.71650000	      0.29557578	      2.86645422	     12.10984571	      0.09255742	      0.97618052	      0.28367029	     24.80616691	     -6.50979555	     -6.94223292	      0.60338137	      7.44225849	    -16.65062895	      5.61976737	    -24.72571778	      0.98695016	     13.26591828	     -1.58030605	     11.33894384	     -8.39826568	      4.49778851	     -2.66772858	     -3.22163068	     -3.63854560
      0.72066667	      0.31988125	      2.77777690	     12.23139539	      0.09866240	      0.97577718	      0.28410449	     24.70818487	     -6.38735435	     -6.74070083	      0.24890546	      7.26282050	    -17.01889359	      5.66673548	    -24.86958185	      0.76395969	     13.20685793	     -1.97015396	     11.20975530	     -8.21370488	      4.60760536	     -2.65803556	     -3.08559145	     -3.85978531
      0.72483333	      0.31531841	      2.66652727	     12.34776377	      0.10486508	      0.97536976	      0.28453197	     24.65763052	     -6.24489062	     -6.61847684	     -0.16407120	      7.11732733	    -17.26523913	      5.71580033	    -24.97797396	      0.52888421	     13.15797150	     -2.36589823	     11.03349501	     -8.07679672	      4.71506904	     -2.59623268	     -2.92873728	     -3.94822830
      0.72900000	      0.33217465	      2.56605825	     12.45708331	      0.11106758	      0.97503658	      0.28500743	     24.57793919	     -6.09811071	     -6.47010112	     -0.57463126	      6.85994726	    -17.58871202	      5.80617247	    -25.07499443	      0.30563601	     13.06447521	     -2.83216667	     10.89133229	     -7.89757487	      4.90965788	     -2.56838170	     -2.79964307	     -4.07396472
      0.73316667	      0.32664243	      2.42737642	     12.55595941	      0.11739659	      0.97470418	      0.28546447	     24.53446873	     -5.91389646	     -6.39737660	     -1.02201077	      6.61860886	    -17.76757144	      5.86044436	    -25.16088423	      0.05389481	     12.99718513	     -3.26118830	     10.64492672	     -7.80873595	      5.02562446	     -2.47566132	     -2.60703038	     -4.13853264
      0.73733333	      0.33673529	      2.30062389	     12.64689136	      0.12370662	      0.97443813	      0.28597888	     24.45946990	     -5.72515208	     -6.22730173	     -1.44364001	      6.24830126	    -18.18846918	      5.99672448	    -25.21022040	     -0.18160781	     12.85065941	     -3.80007470	     10.48094866	     -7.59906808	      5.31451616	     -2.42597405	     -2.45122944	     -4.26564839
